<svg version="1.1" id="Layer_1" xmlns="http://www.w3.org/2000/svg" xmlns:xlink="http://www.w3.org/1999/xlink" x="0px" y="0px"
	 width="100%" viewBox="0 0 1000 1000" enable-background="new 0 0 1000 1000" xml:space="preserve">
<path fill="#010000" opacity="1.000000" stroke="none" 
	d="
M554.000000,1001.000000 
	C369.333344,1001.000000 185.166672,1001.000000 1.000000,1001.000000 
	C1.000000,667.666687 1.000000,334.333344 1.000000,1.000000 
	C334.333344,1.000000 667.666687,1.000000 1001.000000,1.000000 
	C1001.000000,334.333344 1001.000000,667.666687 1001.000000,1001.000000 
	C852.166687,1001.000000 703.333313,1001.000000 554.000000,1001.000000 
M591.499756,624.755554 
	C612.257690,624.755554 633.015564,624.755554 653.738953,624.755554 
	C653.738953,622.560364 653.738953,619.647766 653.738953,616.808899 
	C639.625427,613.825134 632.814941,608.815979 625.917664,596.157837 
	C624.016968,592.669495 622.374451,589.012512 620.925110,585.310913 
	C611.966431,562.431213 603.023071,539.544739 594.287476,516.579529 
	C593.146729,513.580505 591.821533,512.539673 588.628174,512.586548 
	C575.967346,512.772461 563.302185,512.653259 550.638733,512.678467 
	C549.411560,512.680908 548.184814,512.899414 546.716492,513.040833 
	C552.429321,528.270386 558.111877,542.984253 563.461426,557.818115 
	C567.737427,569.674988 572.192139,581.519653 575.486206,593.663025 
	C578.462402,604.635010 573.857117,611.444519 562.828735,613.946594 
	C556.397095,615.405762 549.760620,615.962158 542.971191,616.960815 
	C542.971191,619.810059 542.971191,622.741211 542.971191,624.755554 
	C558.922852,624.755554 574.711243,624.755554 591.499756,624.755554 
M448.416016,419.209076 
	C457.781891,419.664978 457.775177,419.662384 461.048096,411.136932 
	C468.428009,391.913300 475.809052,372.690094 483.213226,353.475830 
	C483.717590,352.167023 484.417847,350.933716 485.315643,349.064362 
	C493.716370,371.432861 501.958771,392.970276 509.805695,414.650787 
	C511.220734,418.560455 513.036133,419.549011 516.934753,419.461853 
	C528.761902,419.197449 540.598694,419.377167 552.431702,419.349701 
	C553.660278,419.346863 554.888367,419.115723 556.412292,418.960358 
	C539.841980,376.210419 523.413757,333.964691 507.175354,291.646118 
	C506.005096,288.596436 504.163818,288.849823 501.834686,288.688782 
	C499.368958,288.518250 497.990997,289.177490 497.027893,291.678680 
	C480.738953,333.980804 464.350708,376.244629 448.416016,419.209076 
M397.907593,547.234680 
	C392.253357,561.058838 387.148560,575.142029 380.789185,588.633850 
	C374.523865,601.926025 365.053345,612.492859 350.166565,616.508606 
	C350.166565,619.771729 350.166565,622.809631 350.166565,625.328552 
	C380.108124,625.328552 409.689880,625.328552 439.391968,625.328552 
	C439.391968,622.643127 439.391968,619.760498 439.391968,616.822388 
	C433.985809,616.193542 428.852539,615.791687 423.786804,614.972412 
	C404.777069,611.897949 396.730560,602.278320 399.066437,583.292236 
	C400.330048,573.021301 403.426941,562.850464 406.748535,552.988770 
	C411.278290,539.540161 416.811462,526.429504 422.114960,512.653076 
	C420.244049,512.653076 418.914948,512.855774 417.670288,512.617493 
	C412.656586,511.657715 410.440918,513.883850 408.848572,518.605774 
	C405.669342,528.033447 401.735016,537.206543 397.907593,547.234680 
M516.593994,458.792877 
	C515.511108,466.657623 514.428223,474.522400 513.352112,482.337585 
	C516.921875,483.636078 517.588501,482.394073 517.859253,479.596588 
	C518.559387,472.362000 519.641113,465.164307 520.570557,457.951904 
	C524.346436,465.046265 526.980225,472.292847 529.914978,479.415344 
	C530.504395,480.845734 532.238281,481.804565 533.444458,482.980835 
	C534.557007,481.788666 536.149414,480.784027 536.700928,479.372620 
	C539.432373,472.383057 541.888977,465.286102 544.442383,458.226990 
	C546.643616,465.356323 547.778320,472.310699 548.724243,479.290649 
	C549.213684,482.902893 550.902527,483.703064 554.087585,482.359009 
	C552.383362,470.775879 550.716736,459.448425 549.047974,448.106567 
	C547.050720,448.106567 545.449463,448.106567 544.066223,448.106567 
	C540.689697,457.690399 537.421387,466.967194 533.794861,477.260681 
	C530.386658,467.904663 527.386292,459.813812 524.502380,451.681702 
	C523.302124,448.297119 521.439209,446.740021 517.624939,448.625885 
	C517.340454,451.657074 517.046631,454.788422 516.593994,458.792877 
M488.595154,481.323456 
	C496.797821,476.207275 499.828461,466.750397 496.236694,457.478607 
	C492.181274,447.009949 478.174652,444.204926 470.384949,452.301422 
	C464.984467,457.914612 463.939178,469.128601 468.174194,476.018311 
	C472.085876,482.382019 479.110474,484.417206 488.595154,481.323456 
M598.091675,475.505798 
	C602.021973,468.178619 602.400452,460.693787 597.474548,453.888336 
	C590.872559,444.767151 581.002991,448.696503 572.259399,448.004028 
	C572.259399,459.856232 572.259399,471.224762 572.259399,482.861450 
	C576.450928,482.861450 580.229065,482.882141 584.006897,482.856598 
	C589.647583,482.818451 594.372986,480.877441 598.091675,475.505798 
M637.149414,458.136261 
	C635.783752,454.769318 634.418152,451.402405 632.545593,446.785675 
	C630.489868,448.170807 628.033813,448.901764 627.411011,450.396576 
	C623.594177,459.557129 620.174561,468.883850 616.671692,478.173737 
	C616.132568,479.603455 615.846558,481.128601 615.443481,482.609619 
	C615.985352,482.928131 616.527222,483.246613 617.069092,483.565094 
	C618.104309,482.302612 619.322510,481.146606 620.132812,479.753296 
	C621.430420,477.521912 622.085388,473.487213 623.671021,473.128540 
	C627.936035,472.163788 632.648315,472.205750 636.970154,473.002686 
	C638.432922,473.272400 639.359009,476.954041 640.349792,479.157654 
	C641.634521,482.015076 643.167419,484.102142 646.826721,482.348022 
	C643.685913,474.477112 640.567505,466.662262 637.149414,458.136261 
M385.998535,482.923004 
	C386.324341,482.237091 387.099823,481.373962 386.909607,480.891388 
	C383.021606,471.026825 378.908997,461.249634 375.110046,451.351807 
	C373.808563,447.960907 371.925720,447.078827 368.784698,448.381958 
	C364.417755,459.741150 360.067322,471.057373 355.716888,482.373596 
	C356.297485,482.749084 356.878052,483.124573 357.458649,483.500061 
	C358.626434,482.170471 360.522491,480.990997 360.833008,479.484711 
	C362.025879,473.698181 365.255341,471.504578 370.947723,472.611969 
	C371.428467,472.705505 371.957733,472.701996 372.439972,472.612244 
	C376.909180,471.780334 379.392609,473.491211 380.752594,477.959412 
	C381.345947,479.908875 383.713531,481.318329 385.998535,482.923004 
M432.863556,479.349854 
	C432.863556,468.927002 432.863556,458.504181 432.863556,447.683258 
	C430.438293,447.946045 429.029694,448.098663 427.936462,448.217133 
	C427.936462,454.251434 427.936462,459.897736 427.936462,465.544037 
	C427.936462,471.295197 427.936462,477.046326 427.936462,482.729797 
	C444.430084,483.659912 449.269714,483.159149 451.151917,479.917542 
	C445.111115,479.917542 439.384583,479.917542 432.863556,479.349854 
M386.441559,708.113464 
	C386.441559,701.213562 386.441559,694.313599 386.441559,687.999207 
	C382.712524,687.614807 379.441040,686.334534 377.114746,687.309509 
	C374.895966,688.239502 372.895905,691.307068 372.196472,693.823242 
	C371.385651,696.740234 371.705444,700.148804 372.239502,703.221436 
	C373.079285,708.052979 376.741089,709.397827 384.961456,707.628296 
	C383.633179,710.420837 382.692841,714.188904 381.667633,714.212158 
	C378.770294,714.277771 375.838165,712.808044 372.742584,711.890808 
	C372.841461,711.549561 372.535706,712.017700 372.622589,712.395508 
	C373.539307,716.382812 376.436157,717.676392 380.101898,717.402649 
	C385.251801,717.018188 386.609711,713.532837 386.441559,708.113464 
M556.852478,687.661804 
	C550.853699,686.052551 546.886536,687.502075 546.242188,692.199219 
	C545.682861,696.276917 545.755859,700.549988 546.295593,704.638184 
	C546.798706,708.448730 550.833618,710.620789 554.720703,709.752625 
	C558.416504,708.927185 560.527954,706.789978 560.436279,701.300049 
	C557.227600,705.031433 555.045593,709.170044 550.769775,706.385071 
	C549.294434,705.424011 549.034363,702.596985 547.813049,699.638611 
	C552.776428,699.638611 556.503357,699.638611 561.988953,699.638611 
	C560.200439,694.998718 558.852844,691.502625 556.852478,687.661804 
M406.231476,706.962830 
	C408.986572,710.311829 412.563782,710.910339 416.037292,708.818542 
	C417.809021,707.751465 418.711792,705.241516 420.007355,703.383789 
	C419.562714,702.996521 419.118103,702.609253 418.673462,702.221924 
	C416.233734,704.994812 414.071136,709.177490 409.786896,706.390442 
	C408.306335,705.427246 408.033936,702.606873 406.798462,699.651001 
	C411.761810,699.651001 415.488037,699.651001 419.686218,699.651001 
	C419.478790,696.695007 419.561707,694.361816 419.104462,692.139771 
	C418.310730,688.281982 415.583771,686.745544 411.777008,686.825012 
	C408.039917,686.903015 405.459595,688.960571 405.223785,692.413086 
	C404.911682,696.982971 405.597260,701.620972 406.231476,706.962830 
M320.258575,705.078125 
	C320.593231,706.562805 320.927887,708.047485 321.262512,709.532166 
	C321.883057,709.408020 322.503571,709.283875 323.124084,709.159790 
	C323.124084,705.606323 323.124084,702.052917 323.124084,698.590759 
	C333.923035,697.545166 337.332672,694.194824 335.782959,686.655518 
	C334.505096,680.438843 329.206238,678.382935 320.529358,680.738342 
	C320.452972,681.053894 320.310974,681.369263 320.309845,681.685120 
	C320.283630,689.180481 320.272522,696.675964 320.258575,705.078125 
M596.711609,706.997498 
	C595.461365,704.929199 594.211121,702.860901 592.262451,699.637207 
	C597.825562,699.637207 601.408875,699.637207 605.535645,699.637207 
	C605.398682,696.884094 605.519043,694.574097 605.121338,692.356934 
	C604.429688,688.501221 601.806091,686.845825 597.978638,686.834900 
	C594.258301,686.824219 591.676270,688.752380 591.240173,692.206299 
	C590.724915,696.286987 590.758118,700.538635 591.290405,704.620117 
	C591.785034,708.412659 595.816040,710.598267 599.686462,709.734558 
	C603.362183,708.914246 605.518982,706.819641 605.412170,702.889771 
	C602.516724,704.445557 600.030029,705.781738 596.711609,706.997498 
M541.199890,682.183411 
	C537.042236,681.156799 532.884583,680.130249 528.421082,679.028076 
	C528.421082,690.019531 528.421082,699.647156 528.421082,709.274841 
	C529.045654,709.354126 529.670227,709.433411 530.294739,709.512695 
	C530.592407,705.828552 530.890076,702.144348 531.180664,698.548401 
	C543.052185,697.432190 546.336060,692.324402 541.199890,682.183411 
M482.016754,698.573547 
	C482.008972,697.242004 482.055939,695.907593 481.984314,694.579468 
	C481.605316,687.552185 478.391357,685.566101 471.861542,688.058777 
	C470.827881,688.453247 469.404327,687.826355 468.421143,687.704041 
	C468.421143,694.931824 468.421143,702.166931 468.421143,709.402100 
	C468.927490,709.429260 469.433838,709.456482 469.940186,709.483704 
	C470.060059,707.848328 470.207764,706.214478 470.294281,704.577332 
	C470.495575,700.769104 470.249176,696.868408 471.049164,693.193359 
	C471.387054,691.641357 473.903351,690.563599 475.429443,689.270203 
	C476.658569,690.766357 478.741577,692.152710 478.950867,693.780029 
	C479.499115,698.042542 479.160858,702.413147 479.338684,706.733948 
	C479.378418,707.698975 480.085419,708.636475 480.485260,709.586670 
	C480.995758,709.479309 481.506287,709.372009 482.016785,709.264648 
	C482.016785,706.018127 482.016785,702.771545 482.016754,698.573547 
M682.325256,706.595947 
	C682.254150,701.939392 682.445129,697.259949 682.040833,692.632507 
	C681.606201,687.657654 678.318237,685.881531 673.542114,687.326843 
	C671.930908,687.814331 670.148621,687.736450 668.743347,687.885315 
	C668.743347,694.998108 668.743347,702.200623 668.743347,709.403076 
	C669.260132,709.423035 669.776978,709.442993 670.293762,709.462952 
	C670.473083,708.010803 670.759644,706.562378 670.810974,705.105713 
	C670.945496,701.284302 670.506104,697.362732 671.260010,693.678528 
	C671.608704,691.974792 674.206055,690.731140 675.783875,689.278931 
	C677.062439,690.766296 678.772400,692.073120 679.492737,693.794128 
	C680.153015,695.371704 679.783997,697.395874 679.799866,699.223877 
	C679.829163,702.602173 679.808228,705.980835 679.808228,709.359375 
	C680.245911,709.428650 680.683594,709.497925 681.121277,709.567200 
	C681.521118,708.840881 681.921021,708.114563 682.325256,706.595947 
M651.488525,688.006470 
	C648.167603,691.842896 646.759827,702.988220 649.851257,706.595886 
	C651.405701,708.409912 654.870667,710.035706 656.963745,709.551331 
	C659.280396,709.015320 661.782898,706.296814 662.791626,703.927307 
	C663.815796,701.521545 663.207642,698.380371 663.154297,695.564209 
	C663.013306,688.118896 659.610046,685.707336 651.488525,688.006470 
M434.625885,693.456909 
	C435.300568,693.049011 435.975250,692.641052 436.649902,692.233093 
	C434.909302,690.469360 433.286774,687.435181 431.398560,687.259705 
	C428.973328,687.034302 425.582092,688.505310 424.065979,690.408020 
	C423.134064,691.577576 424.420990,695.247620 425.666992,697.178284 
	C426.591187,698.610229 429.234039,698.814392 430.775604,700.001526 
	C432.185120,701.087036 433.433350,702.634094 434.122620,704.247009 
	C434.325775,704.722473 432.298798,706.990479 431.446991,706.905396 
	C429.572906,706.718018 427.737671,705.664429 426.005005,704.742004 
	C425.138214,704.280640 424.531097,703.331360 423.806549,702.602722 
	C423.462891,707.571838 426.015442,710.237732 430.069672,709.726807 
	C432.509216,709.419373 435.790863,707.337036 436.702637,705.201965 
	C438.375977,701.283264 435.363464,698.841980 431.798340,697.395020 
	C430.419434,696.835327 428.807068,696.469543 427.794952,695.499878 
	C426.872864,694.616394 425.952301,692.837097 426.255310,691.815918 
	C426.569885,690.755615 428.668579,689.230896 429.431122,689.497742 
	C431.186615,690.112183 432.604828,691.690308 434.625885,693.456909 
M443.464630,698.018433 
	C444.983856,698.694763 446.697144,699.122864 447.968262,700.116577 
	C449.265778,701.130859 450.460083,702.577576 451.021240,704.087097 
	C451.249115,704.700012 449.655121,706.819214 448.942047,706.793823 
	C446.983795,706.724121 444.950684,706.098572 443.154694,705.252563 
	C442.256134,704.829285 441.810150,703.445312 441.159485,702.495789 
	C439.690399,707.026611 442.117340,709.537292 445.522858,709.568542 
	C448.180817,709.592896 451.778381,708.081482 453.308502,706.024902 
	C455.493134,703.088623 453.553986,699.997620 450.415314,698.210938 
	C448.979523,697.393677 447.167145,697.126221 445.920319,696.120178 
	C444.669037,695.110474 443.592651,693.594910 443.101929,692.085754 
	C442.925568,691.543274 444.685638,689.639526 445.548065,689.648804 
	C447.165741,689.666199 448.891541,690.422363 450.340576,691.268433 
	C451.205475,691.773438 451.629669,693.033386 452.963928,695.007202 
	C453.739136,690.247437 452.173523,688.057312 449.269165,687.204773 
	C446.117920,686.279663 442.830414,686.467163 440.900635,689.788452 
	C439.091400,692.902161 440.057373,695.538574 443.464630,698.018433 
M355.039948,688.648254 
	C354.331970,693.591309 353.192596,698.521973 353.051147,703.481201 
	C352.935760,707.525696 355.891235,709.760803 359.880219,709.887634 
	C363.835083,710.013367 366.660889,708.113647 367.207581,703.992065 
	C367.597534,701.051758 367.713623,698.032166 367.550842,695.070007 
	C367.141113,687.612976 362.747467,685.140564 355.039948,688.648254 
M486.647034,696.791138 
	C486.711334,699.105774 486.568756,701.448853 486.883087,703.729065 
	C487.536530,708.469238 491.901794,711.043945 496.409790,709.545288 
	C500.965149,708.030823 501.533386,704.289612 501.348083,700.321655 
	C501.126282,695.572021 502.875824,690.056458 496.885345,687.270996 
	C496.307556,687.002380 495.604767,686.965942 494.952118,686.900452 
	C489.570129,686.361145 487.126831,689.028931 486.647034,696.791138 
M610.860657,706.402283 
	C613.468872,710.280151 616.985046,710.869690 620.835999,708.699219 
	C623.353516,707.280334 624.315979,704.895142 623.311829,702.028442 
	C622.210876,702.514526 621.853699,703.439514 621.180969,703.942261 
	C619.625000,705.104980 617.753235,707.061340 616.314941,706.826416 
	C614.850220,706.587158 612.964661,704.251831 612.662903,702.581421 
	C612.111938,699.532410 612.247803,696.234619 612.799500,693.166870 
	C613.052490,691.760193 614.904907,689.729736 616.147522,689.643311 
	C617.698547,689.535339 619.502625,690.966309 620.936829,692.071228 
	C621.780579,692.721252 622.118591,694.027832 623.106873,695.795044 
	C624.065613,690.347778 622.253296,687.543762 618.290527,686.932373 
	C613.882019,686.252136 610.356995,688.466003 610.071472,692.804016 
	C609.790405,697.075439 610.324097,701.400452 610.860657,706.402283 
M513.554443,689.343140 
	C512.418640,688.255798 511.282776,687.168518 509.455292,685.419067 
	C509.363129,685.012939 509.010834,683.460388 508.519073,681.293213 
	C506.675049,684.412109 505.371399,686.617065 503.833954,689.217346 
	C507.976776,689.009155 506.753326,692.382446 506.828430,695.047546 
	C506.917084,698.193481 506.652405,701.374634 507.030304,704.481018 
	C507.552124,708.770386 511.040131,710.430481 514.414185,708.177124 
	C514.087036,707.824951 513.836914,707.328369 513.450500,707.174927 
	C509.763763,705.711121 507.319702,692.696777 510.345428,690.085327 
	C510.871277,689.631470 511.937561,689.803711 513.554443,689.343140 
M632.405029,697.471802 
	C632.405029,695.164856 632.405029,692.857910 632.405029,690.682678 
	C634.200867,689.928101 635.638977,689.323853 637.077087,688.719604 
	C637.011597,688.385498 636.946106,688.051392 636.880554,687.717285 
	C635.520752,687.380249 634.160950,687.043213 632.824646,686.712036 
	C632.453918,685.067139 632.098206,683.489014 631.574280,681.164429 
	C629.718140,684.320801 628.409119,686.546753 627.680542,687.785767 
	C628.495972,690.510010 629.503479,692.742737 629.775452,695.061768 
	C630.142090,698.187622 629.657776,701.416077 630.054504,704.534851 
	C630.601990,708.838440 634.269470,710.508118 637.799927,707.742004 
	C631.363403,707.071228 632.528503,702.423645 632.405029,697.471802 
M580.311890,700.438110 
	C581.054077,703.366333 578.756104,707.047058 582.999756,710.544250 
	C582.999756,702.854797 582.999756,696.461914 582.999756,690.248840 
	C585.013367,689.797424 586.501465,689.463867 587.989502,689.130249 
	C587.999939,688.741821 588.010315,688.353394 588.020691,687.964966 
	C586.443542,687.515808 584.866394,687.066589 581.749390,686.178894 
	C584.189331,683.429810 586.141785,681.230042 588.386414,678.701172 
	C584.408691,677.986816 582.081360,679.282715 580.739441,682.934814 
	C580.002502,684.940552 578.757568,686.759705 578.245300,687.719299 
	C579.018738,690.627625 579.774658,693.036926 580.266907,695.498901 
	C580.522461,696.777100 580.311951,698.148438 580.311890,700.438110 
M348.697205,689.462219 
	C349.158508,688.835266 349.619843,688.208313 350.081116,687.581299 
	C348.837463,687.397339 347.565948,686.956482 346.356537,687.087769 
	C344.407013,687.299500 342.498444,687.888550 339.880096,688.472595 
	C340.095123,694.849365 339.039093,702.161377 340.597290,710.178711 
	C341.626862,709.070068 342.029388,708.839966 342.035797,708.599426 
	C342.141724,704.619934 342.129364,700.636475 342.285034,696.659424 
	C342.430481,692.943176 343.197388,689.587646 348.697205,689.462219 
M565.209351,705.086060 
	C565.509399,706.568054 565.809448,708.049988 566.109497,709.531921 
	C566.741821,709.462158 567.374207,709.392395 568.006531,709.322632 
	C568.006531,706.152527 567.857422,702.973206 568.051453,699.814941 
	C568.220764,697.059204 568.045288,693.865845 569.392395,691.730042 
	C570.479797,690.005798 573.610107,689.569946 575.834106,688.562500 
	C575.850098,688.126282 575.866089,687.690125 575.882080,687.253967 
	C572.469055,687.471863 569.056030,687.689819 565.209412,687.935425 
	C565.209412,693.272827 565.209412,698.726013 565.209351,705.086060 
M391.922760,701.397949 
	C391.922760,704.059998 391.922760,706.722046 391.922760,709.384033 
	C392.471497,709.424255 393.020264,709.464478 393.569000,709.504700 
	C393.874298,708.583984 394.413177,707.670776 394.443298,706.741089 
	C394.556427,703.250122 394.422150,699.751221 394.533936,696.260193 
	C394.666260,692.127441 396.019440,689.043213 401.022583,689.410034 
	C401.496124,689.444763 402.013184,688.886047 402.510040,688.602844 
	C402.450958,688.122681 402.391876,687.642517 402.332794,687.162354 
	C399.074615,687.462952 395.816437,687.763550 391.922760,688.122742 
	C391.922760,691.849121 391.922760,696.141418 391.922760,701.397949 
M642.224792,709.329712 
	C642.398376,702.049622 642.573608,694.769653 642.706665,687.488770 
	C642.707458,687.446472 642.119751,687.393494 641.429443,687.287598 
	C641.429443,694.628418 641.429443,701.907654 642.224792,709.329712 
z"/>
<path fill="#FDFDFD" opacity="1.000000" stroke="none" 
	d="
M590.999695,624.755554 
	C574.711243,624.755554 558.922852,624.755554 542.971191,624.755554 
	C542.971191,622.741211 542.971191,619.810059 542.971191,616.960815 
	C549.760620,615.962158 556.397095,615.405762 562.828735,613.946594 
	C573.857117,611.444519 578.462402,604.635010 575.486206,593.663025 
	C572.192139,581.519653 567.737427,569.674988 563.461426,557.818115 
	C558.111877,542.984253 552.429321,528.270386 546.716492,513.040833 
	C548.184814,512.899414 549.411560,512.680908 550.638733,512.678467 
	C563.302185,512.653259 575.967346,512.772461 588.628174,512.586548 
	C591.821533,512.539673 593.146729,513.580505 594.287476,516.579529 
	C603.023071,539.544739 611.966431,562.431213 620.925110,585.310913 
	C622.374451,589.012512 624.016968,592.669495 625.917664,596.157837 
	C632.814941,608.815979 639.625427,613.825134 653.738953,616.808899 
	C653.738953,619.647766 653.738953,622.560364 653.738953,624.755554 
	C633.015564,624.755554 612.257690,624.755554 590.999695,624.755554 
z"/>
<path fill="#FDFDFD" opacity="1.000000" stroke="none" 
	d="
M448.200226,418.863007 
	C464.350708,376.244629 480.738953,333.980804 497.027893,291.678680 
	C497.990997,289.177490 499.368958,288.518250 501.834686,288.688782 
	C504.163818,288.849823 506.005096,288.596436 507.175354,291.646118 
	C523.413757,333.964691 539.841980,376.210419 556.412292,418.960358 
	C554.888367,419.115723 553.660278,419.346863 552.431702,419.349701 
	C540.598694,419.377167 528.761902,419.197449 516.934753,419.461853 
	C513.036133,419.549011 511.220734,418.560455 509.805695,414.650787 
	C501.958771,392.970276 493.716370,371.432861 485.315643,349.064362 
	C484.417847,350.933716 483.717590,352.167023 483.213226,353.475830 
	C475.809052,372.690094 468.428009,391.913300 461.048096,411.136932 
	C457.775177,419.662384 457.781891,419.664978 448.200226,418.863007 
z"/>
<path fill="#FAFAFA" opacity="1.000000" stroke="none" 
	d="
M398.010071,546.859741 
	C401.735016,537.206543 405.669342,528.033447 408.848572,518.605774 
	C410.440918,513.883850 412.656586,511.657715 417.670288,512.617493 
	C418.914948,512.855774 420.244049,512.653076 422.114960,512.653076 
	C416.811462,526.429504 411.278290,539.540161 406.748535,552.988770 
	C403.426941,562.850464 400.330048,573.021301 399.066437,583.292236 
	C396.730560,602.278320 404.777069,611.897949 423.786804,614.972412 
	C428.852539,615.791687 433.985809,616.193542 439.391968,616.822388 
	C439.391968,619.760498 439.391968,622.643127 439.391968,625.328552 
	C409.689880,625.328552 380.108124,625.328552 350.166565,625.328552 
	C350.166565,622.809631 350.166565,619.771729 350.166565,616.508606 
	C365.053345,612.492859 374.523865,601.926025 380.789185,588.633850 
	C387.148560,575.142029 392.253357,561.058838 398.010071,546.859741 
z"/>
<path fill="#EEEEEE" opacity="1.000000" stroke="none" 
	d="
M516.673340,458.356323 
	C517.046631,454.788422 517.340454,451.657074 517.624939,448.625885 
	C521.439209,446.740021 523.302124,448.297119 524.502380,451.681702 
	C527.386292,459.813812 530.386658,467.904663 533.794861,477.260681 
	C537.421387,466.967194 540.689697,457.690399 544.066223,448.106567 
	C545.449463,448.106567 547.050720,448.106567 549.047974,448.106567 
	C550.716736,459.448425 552.383362,470.775879 554.087585,482.359009 
	C550.902527,483.703064 549.213684,482.902893 548.724243,479.290649 
	C547.778320,472.310699 546.643616,465.356323 544.442383,458.226990 
	C541.888977,465.286102 539.432373,472.383057 536.700928,479.372620 
	C536.149414,480.784027 534.557007,481.788666 533.444458,482.980835 
	C532.238281,481.804565 530.504395,480.845734 529.914978,479.415344 
	C526.980225,472.292847 524.346436,465.046265 520.570557,457.951904 
	C519.641113,465.164307 518.559387,472.362000 517.859253,479.596588 
	C517.588501,482.394073 516.921875,483.636078 513.352112,482.337585 
	C514.428223,474.522400 515.511108,466.657623 516.673340,458.356323 
z"/>
<path fill="#EEEEEE" opacity="1.000000" stroke="none" 
	d="
M488.263550,481.532990 
	C479.110474,484.417206 472.085876,482.382019 468.174194,476.018311 
	C463.939178,469.128601 464.984467,457.914612 470.384949,452.301422 
	C478.174652,444.204926 492.181274,447.009949 496.236694,457.478607 
	C499.828461,466.750397 496.797821,476.207275 488.263550,481.532990 
M476.108490,452.210358 
	C470.322052,457.822693 468.913940,467.616913 472.863556,474.591095 
	C474.812592,478.032715 477.612610,480.046204 481.678223,480.045776 
	C486.011353,480.045319 489.619385,477.825928 490.470856,474.005981 
	C491.580444,469.028229 492.154755,463.469421 491.077576,458.574768 
	C489.484009,451.333832 484.095306,449.331482 476.108490,452.210358 
z"/>
<path fill="#EEEEEE" opacity="1.000000" stroke="none" 
	d="
M597.909790,475.827301 
	C594.372986,480.877441 589.647583,482.818451 584.006897,482.856598 
	C580.229065,482.882141 576.450928,482.861450 572.259399,482.861450 
	C572.259399,471.224762 572.259399,459.856232 572.259399,448.004028 
	C581.002991,448.696503 590.872559,444.767151 597.474548,453.888336 
	C602.400452,460.693787 602.021973,468.178619 597.909790,475.827301 
M595.026550,459.813507 
	C591.822083,451.335297 588.640686,449.812561 577.255371,451.310455 
	C577.255371,460.837524 577.255371,470.364563 577.255371,479.973877 
	C579.289978,479.973877 580.951294,479.982300 582.612427,479.972443 
	C590.316589,479.926758 593.918091,477.129791 595.243774,469.474091 
	C595.739441,466.612061 595.216614,463.573639 595.026550,459.813507 
z"/>
<path fill="#EEEEEE" opacity="1.000000" stroke="none" 
	d="
M637.299194,458.491821 
	C640.567505,466.662262 643.685913,474.477112 646.826721,482.348022 
	C643.167419,484.102142 641.634521,482.015076 640.349792,479.157654 
	C639.359009,476.954041 638.432922,473.272400 636.970154,473.002686 
	C632.648315,472.205750 627.936035,472.163788 623.671021,473.128540 
	C622.085388,473.487213 621.430420,477.521912 620.132812,479.753296 
	C619.322510,481.146606 618.104309,482.302612 617.069092,483.565094 
	C616.527222,483.246613 615.985352,482.928131 615.443481,482.609619 
	C615.846558,481.128601 616.132568,479.603455 616.671692,478.173737 
	C620.174561,468.883850 623.594177,459.557129 627.411011,450.396576 
	C628.033813,448.901764 630.489868,448.170807 632.545593,446.785675 
	C634.418152,451.402405 635.783752,454.769318 637.299194,458.491821 
M631.443054,469.797607 
	C632.981323,469.710114 634.519592,469.622650 636.606506,469.503967 
	C634.471191,464.075439 632.564270,459.227356 630.266541,453.385895 
	C627.979126,459.441620 626.086670,464.451630 624.067322,469.797607 
	C626.605408,469.797607 628.578979,469.797607 631.443054,469.797607 
z"/>
<path fill="#EEEEEE" opacity="1.000000" stroke="none" 
	d="
M385.636963,482.947998 
	C383.713531,481.318329 381.345947,479.908875 380.752594,477.959412 
	C379.392609,473.491211 376.909180,471.780334 372.439972,472.612244 
	C371.957733,472.701996 371.428467,472.705505 370.947723,472.611969 
	C365.255341,471.504578 362.025879,473.698181 360.833008,479.484711 
	C360.522491,480.990997 358.626434,482.170471 357.458649,483.500061 
	C356.878052,483.124573 356.297485,482.749084 355.716888,482.373596 
	C360.067322,471.057373 364.417755,459.741150 368.784698,448.381958 
	C371.925720,447.078827 373.808563,447.960907 375.110046,451.351807 
	C378.908997,461.249634 383.021606,471.026825 386.909607,480.891388 
	C387.099823,481.373962 386.324341,482.237091 385.636963,482.947998 
M368.071594,460.592163 
	C367.009918,463.493622 365.948242,466.395111 364.819031,469.481110 
	C369.115845,469.481110 372.931091,469.481110 377.246216,469.481110 
	C375.121277,464.179535 373.176727,459.327942 370.875519,453.586578 
	C369.698792,456.480591 369.014740,458.162872 368.071594,460.592163 
z"/>
<path fill="#EEEEEE" opacity="1.000000" stroke="none" 
	d="
M433.260803,479.633698 
	C439.384583,479.917542 445.111115,479.917542 451.151917,479.917542 
	C449.269714,483.159149 444.430084,483.659912 427.936462,482.729797 
	C427.936462,477.046326 427.936462,471.295197 427.936462,465.544037 
	C427.936462,459.897736 427.936462,454.251434 427.936462,448.217133 
	C429.029694,448.098663 430.438293,447.946045 432.863556,447.683258 
	C432.863556,458.504181 432.863556,468.927002 433.260803,479.633698 
z"/>
<path fill="#AEAEAE" opacity="1.000000" stroke="none" 
	d="
M386.441040,708.560730 
	C386.609711,713.532837 385.251801,717.018188 380.101898,717.402649 
	C376.436157,717.676392 373.539307,716.382812 372.622589,712.395508 
	C372.535706,712.017700 372.841461,711.549561 372.742584,711.890808 
	C375.838165,712.808044 378.770294,714.277771 381.667633,714.212158 
	C382.692841,714.188904 383.633179,710.420837 384.961456,707.628296 
	C376.741089,709.397827 373.079285,708.052979 372.239502,703.221436 
	C371.705444,700.148804 371.385651,696.740234 372.196472,693.823242 
	C372.895905,691.307068 374.895966,688.239502 377.114746,687.309509 
	C379.441040,686.334534 382.712524,687.614807 386.441559,687.999207 
	C386.441559,694.313599 386.441559,701.213562 386.441040,708.560730 
M375.008148,692.226379 
	C374.916199,695.525146 374.301300,698.931824 374.950043,702.077820 
	C375.280945,703.682434 377.786041,705.699219 379.484985,705.881226 
	C380.777405,706.019653 383.084625,703.802429 383.617798,702.194702 
	C384.363739,699.945251 384.273193,697.209167 383.796753,694.830200 
	C383.418884,692.943237 382.294556,690.395569 380.816376,689.775940 
	C379.443909,689.200562 377.164398,690.788879 375.008148,692.226379 
z"/>
<path fill="#A6A6A6" opacity="1.000000" stroke="none" 
	d="
M557.178833,687.834167 
	C558.852844,691.502625 560.200439,694.998718 561.988953,699.638611 
	C556.503357,699.638611 552.776428,699.638611 547.813049,699.638611 
	C549.034363,702.596985 549.294434,705.424011 550.769775,706.385071 
	C555.045593,709.170044 557.227600,705.031433 560.436279,701.300049 
	C560.527954,706.789978 558.416504,708.927185 554.720703,709.752625 
	C550.833618,710.620789 546.798706,708.448730 546.295593,704.638184 
	C545.755859,700.549988 545.682861,696.276917 546.242188,692.199219 
	C546.886536,687.502075 550.853699,686.052551 557.178833,687.834167 
M549.249451,691.404358 
	C549.030762,693.130676 548.812073,694.857056 548.564148,696.814148 
	C551.956665,696.814148 554.848022,696.814148 557.730652,696.814148 
	C557.925903,689.704956 555.414124,687.876648 549.249451,691.404358 
z"/>
<path fill="#A6A6A6" opacity="1.000000" stroke="none" 
	d="
M406.042786,706.596313 
	C405.597260,701.620972 404.911682,696.982971 405.223785,692.413086 
	C405.459595,688.960571 408.039917,686.903015 411.777008,686.825012 
	C415.583771,686.745544 418.310730,688.281982 419.104462,692.139771 
	C419.561707,694.361816 419.478790,696.695007 419.686218,699.651001 
	C415.488037,699.651001 411.761810,699.651001 406.798462,699.651001 
	C408.033936,702.606873 408.306335,705.427246 409.786896,706.390442 
	C414.071136,709.177490 416.233734,704.994812 418.673462,702.221924 
	C419.118103,702.609253 419.562714,702.996521 420.007355,703.383789 
	C418.711792,705.241516 417.809021,707.751465 416.037292,708.818542 
	C412.563782,710.910339 408.986572,710.311829 406.042786,706.596313 
M414.233459,697.067200 
	C417.480743,697.474976 417.630035,694.939453 416.679718,693.423157 
	C415.579254,691.667480 413.206787,689.442078 411.537231,689.559753 
	C407.390076,689.851990 407.407074,693.325867 407.957184,697.069214 
	C409.778015,697.069214 411.551361,697.069214 414.233459,697.067200 
z"/>
<path fill="#AAAAAA" opacity="1.000000" stroke="none" 
	d="
M320.258606,704.624756 
	C320.272522,696.675964 320.283630,689.180481 320.309845,681.685120 
	C320.310974,681.369263 320.452972,681.053894 320.533630,680.739380 
	C329.206238,678.382935 334.505096,680.438843 335.782959,686.655518 
	C337.332672,694.194824 333.923035,697.545166 323.124084,698.590759 
	C323.124084,702.052917 323.124084,705.606323 323.124084,709.159790 
	C322.503571,709.283875 321.883057,709.408020 321.262512,709.532166 
	C320.927887,708.047485 320.593231,706.562805 320.258606,704.624756 
M325.378876,682.561157 
	C324.607727,683.157349 323.205322,683.717834 323.169281,684.355591 
	C322.957825,688.097534 323.065399,691.857544 323.065399,695.566406 
	C330.821136,695.974304 332.774414,694.793030 333.093170,689.921814 
	C333.436218,684.679443 332.031281,683.152161 325.378876,682.561157 
z"/>
<path fill="#AAAAAA" opacity="1.000000" stroke="none" 
	d="
M597.127441,707.057678 
	C600.030029,705.781738 602.516724,704.445557 605.412170,702.889771 
	C605.518982,706.819641 603.362183,708.914246 599.686462,709.734558 
	C595.816040,710.598267 591.785034,708.412659 591.290405,704.620117 
	C590.758118,700.538635 590.724915,696.286987 591.240173,692.206299 
	C591.676270,688.752380 594.258301,686.824219 597.978638,686.834900 
	C601.806091,686.845825 604.429688,688.501221 605.121338,692.356934 
	C605.519043,694.574097 605.398682,696.884094 605.535645,699.637207 
	C601.408875,699.637207 597.825562,699.637207 592.262451,699.637207 
	C594.211121,702.860901 595.461365,704.929199 597.127441,707.057678 
M598.400269,697.083740 
	C599.847168,697.015564 601.294006,696.947388 602.753357,696.878662 
	C603.215820,692.959900 602.713257,689.480225 598.327881,689.514404 
	C596.753235,689.526733 594.508789,692.092834 593.791931,693.962036 
	C592.567932,697.153564 595.221985,697.199097 598.400269,697.083740 
z"/>
<path fill="#AEAEAE" opacity="1.000000" stroke="none" 
	d="
M541.465454,682.468628 
	C546.336060,692.324402 543.052185,697.432190 531.180664,698.548401 
	C530.890076,702.144348 530.592407,705.828552 530.294739,709.512695 
	C529.670227,709.433411 529.045654,709.354126 528.421082,709.274841 
	C528.421082,699.647156 528.421082,690.019531 528.421082,679.028076 
	C532.884583,680.130249 537.042236,681.156799 541.465454,682.468628 
M539.803650,684.611023 
	C537.059387,683.711914 534.315125,682.812744 531.229248,681.801697 
	C531.229248,687.314819 531.229248,691.485718 531.229248,695.621216 
	C540.051575,695.994446 542.170898,693.435486 539.803650,684.611023 
z"/>
<path fill="#AAAAAA" opacity="1.000000" stroke="none" 
	d="
M482.016785,699.049316 
	C482.016785,702.771545 482.016785,706.018127 482.016785,709.264648 
	C481.506287,709.372009 480.995758,709.479309 480.485260,709.586670 
	C480.085419,708.636475 479.378418,707.698975 479.338684,706.733948 
	C479.160858,702.413147 479.499115,698.042542 478.950867,693.780029 
	C478.741577,692.152710 476.658569,690.766357 475.429443,689.270203 
	C473.903351,690.563599 471.387054,691.641357 471.049164,693.193359 
	C470.249176,696.868408 470.495575,700.769104 470.294281,704.577332 
	C470.207764,706.214478 470.060059,707.848328 469.940186,709.483704 
	C469.433838,709.456482 468.927490,709.429260 468.421143,709.402100 
	C468.421143,702.166931 468.421143,694.931824 468.421143,687.704041 
	C469.404327,687.826355 470.827881,688.453247 471.861542,688.058777 
	C478.391357,685.566101 481.605316,687.552185 481.984314,694.579468 
	C482.055939,695.907593 482.008972,697.242004 482.016785,699.049316 
z"/>
<path fill="#AAAAAA" opacity="1.000000" stroke="none" 
	d="
M682.323120,706.992065 
	C681.921021,708.114563 681.521118,708.840881 681.121277,709.567200 
	C680.683594,709.497925 680.245911,709.428650 679.808228,709.359375 
	C679.808228,705.980835 679.829163,702.602173 679.799866,699.223877 
	C679.783997,697.395874 680.153015,695.371704 679.492737,693.794128 
	C678.772400,692.073120 677.062439,690.766296 675.783875,689.278931 
	C674.206055,690.731140 671.608704,691.974792 671.260010,693.678528 
	C670.506104,697.362732 670.945496,701.284302 670.810974,705.105713 
	C670.759644,706.562378 670.473083,708.010803 670.293762,709.462952 
	C669.776978,709.442993 669.260132,709.423035 668.743347,709.403076 
	C668.743347,702.200623 668.743347,694.998108 668.743347,687.885315 
	C670.148621,687.736450 671.930908,687.814331 673.542114,687.326843 
	C678.318237,685.881531 681.606201,687.657654 682.040833,692.632507 
	C682.445129,697.259949 682.254150,701.939392 682.323120,706.992065 
z"/>
<path fill="#AEAEAE" opacity="1.000000" stroke="none" 
	d="
M651.814453,687.835571 
	C659.610046,685.707336 663.013306,688.118896 663.154297,695.564209 
	C663.207642,698.380371 663.815796,701.521545 662.791626,703.927307 
	C661.782898,706.296814 659.280396,709.015320 656.963745,709.551331 
	C654.870667,710.035706 651.405701,708.409912 649.851257,706.595886 
	C646.759827,702.988220 648.167603,691.842896 651.814453,687.835571 
M655.551514,707.244934 
	C658.964539,707.444092 660.392212,705.417664 660.585205,702.413025 
	C660.765137,699.609863 661.196594,696.597839 660.390869,694.031311 
	C659.798889,692.145386 657.371826,689.587158 655.793274,689.608337 
	C654.194275,689.629944 651.830688,692.209045 651.251282,694.109619 
	C650.465210,696.688171 650.620911,699.783936 651.216248,702.470947 
	C651.600098,704.203857 653.496399,705.601807 655.551514,707.244934 
z"/>
<path fill="#AAAAAA" opacity="1.000000" stroke="none" 
	d="
M434.392883,693.167114 
	C432.604828,691.690308 431.186615,690.112183 429.431122,689.497742 
	C428.668579,689.230896 426.569885,690.755615 426.255310,691.815918 
	C425.952301,692.837097 426.872864,694.616394 427.794952,695.499878 
	C428.807068,696.469543 430.419434,696.835327 431.798340,697.395020 
	C435.363464,698.841980 438.375977,701.283264 436.702637,705.201965 
	C435.790863,707.337036 432.509216,709.419373 430.069672,709.726807 
	C426.015442,710.237732 423.462891,707.571838 423.806549,702.602722 
	C424.531097,703.331360 425.138214,704.280640 426.005005,704.742004 
	C427.737671,705.664429 429.572906,706.718018 431.446991,706.905396 
	C432.298798,706.990479 434.325775,704.722473 434.122620,704.247009 
	C433.433350,702.634094 432.185120,701.087036 430.775604,700.001526 
	C429.234039,698.814392 426.591187,698.610229 425.666992,697.178284 
	C424.420990,695.247620 423.134064,691.577576 424.065979,690.408020 
	C425.582092,688.505310 428.973328,687.034302 431.398560,687.259705 
	C433.286774,687.435181 434.909302,690.469360 436.649902,692.233093 
	C435.975250,692.641052 435.300568,693.049011 434.392883,693.167114 
z"/>
<path fill="#AAAAAA" opacity="1.000000" stroke="none" 
	d="
M443.143982,697.826538 
	C440.057373,695.538574 439.091400,692.902161 440.900635,689.788452 
	C442.830414,686.467163 446.117920,686.279663 449.269165,687.204773 
	C452.173523,688.057312 453.739136,690.247437 452.963928,695.007202 
	C451.629669,693.033386 451.205475,691.773438 450.340576,691.268433 
	C448.891541,690.422363 447.165741,689.666199 445.548065,689.648804 
	C444.685638,689.639526 442.925568,691.543274 443.101929,692.085754 
	C443.592651,693.594910 444.669037,695.110474 445.920319,696.120178 
	C447.167145,697.126221 448.979523,697.393677 450.415314,698.210938 
	C453.553986,699.997620 455.493134,703.088623 453.308502,706.024902 
	C451.778381,708.081482 448.180817,709.592896 445.522858,709.568542 
	C442.117340,709.537292 439.690399,707.026611 441.159485,702.495789 
	C441.810150,703.445312 442.256134,704.829285 443.154694,705.252563 
	C444.950684,706.098572 446.983795,706.724121 448.942047,706.793823 
	C449.655121,706.819214 451.249115,704.700012 451.021240,704.087097 
	C450.460083,702.577576 449.265778,701.130859 447.968262,700.116577 
	C446.697144,699.122864 444.983856,698.694763 443.143982,697.826538 
z"/>
<path fill="#AEAEAE" opacity="1.000000" stroke="none" 
	d="
M355.315125,688.401489 
	C362.747467,685.140564 367.141113,687.612976 367.550842,695.070007 
	C367.713623,698.032166 367.597534,701.051758 367.207581,703.992065 
	C366.660889,708.113647 363.835083,710.013367 359.880219,709.887634 
	C355.891235,709.760803 352.935760,707.525696 353.051147,703.481201 
	C353.192596,698.521973 354.331970,693.591309 355.315125,688.401489 
M363.860992,691.015686 
	C358.690704,687.885315 355.613861,689.353699 355.305237,695.234863 
	C355.166687,697.874878 354.840027,700.732239 355.669281,703.118896 
	C356.258698,704.815308 358.662415,706.973816 360.212830,706.939819 
	C361.796204,706.905212 364.442871,704.595947 364.655579,703.017273 
	C365.151367,699.337646 364.464844,695.498840 363.860992,691.015686 
z"/>
<path fill="#AEAEAE" opacity="1.000000" stroke="none" 
	d="
M486.648712,696.366089 
	C487.126831,689.028931 489.570129,686.361145 494.952118,686.900452 
	C495.604767,686.965942 496.307556,687.002380 496.885345,687.270996 
	C502.875824,690.056458 501.126282,695.572021 501.348083,700.321655 
	C501.533386,704.289612 500.965149,708.030823 496.409790,709.545288 
	C491.901794,711.043945 487.536530,708.469238 486.883087,703.729065 
	C486.568756,701.448853 486.711334,699.105774 486.648712,696.366089 
M498.133728,691.771729 
	C496.157349,691.062439 493.915405,689.443726 492.285248,689.919800 
	C490.878174,690.330750 489.670471,693.019592 489.273254,694.892029 
	C488.768341,697.271912 489.050476,699.851807 489.211090,702.331360 
	C489.406799,705.353394 490.934113,707.891052 494.144012,707.034912 
	C495.981567,706.544861 498.231171,704.236267 498.612152,702.397644 
	C499.263916,699.252197 498.593933,695.833008 498.133728,691.771729 
z"/>
<path fill="#AEAEAE" opacity="1.000000" stroke="none" 
	d="
M610.680420,706.052124 
	C610.324097,701.400452 609.790405,697.075439 610.071472,692.804016 
	C610.356995,688.466003 613.882019,686.252136 618.290527,686.932373 
	C622.253296,687.543762 624.065613,690.347778 623.106873,695.795044 
	C622.118591,694.027832 621.780579,692.721252 620.936829,692.071228 
	C619.502625,690.966309 617.698547,689.535339 616.147522,689.643311 
	C614.904907,689.729736 613.052490,691.760193 612.799500,693.166870 
	C612.247803,696.234619 612.111938,699.532410 612.662903,702.581421 
	C612.964661,704.251831 614.850220,706.587158 616.314941,706.826416 
	C617.753235,707.061340 619.625000,705.104980 621.180969,703.942261 
	C621.853699,703.439514 622.210876,702.514526 623.311829,702.028442 
	C624.315979,704.895142 623.353516,707.280334 620.835999,708.699219 
	C616.985046,710.869690 613.468872,710.280151 610.680420,706.052124 
z"/>
<path fill="#AAAAAA" opacity="1.000000" stroke="none" 
	d="
M513.154297,689.514954 
	C511.937561,689.803711 510.871277,689.631470 510.345428,690.085327 
	C507.319702,692.696777 509.763763,705.711121 513.450500,707.174927 
	C513.836914,707.328369 514.087036,707.824951 514.414185,708.177124 
	C511.040131,710.430481 507.552124,708.770386 507.030304,704.481018 
	C506.652405,701.374634 506.917084,698.193481 506.828430,695.047546 
	C506.753326,692.382446 507.976776,689.009155 503.833954,689.217346 
	C505.371399,686.617065 506.675049,684.412109 508.519073,681.293213 
	C509.010834,683.460388 509.363129,685.012939 509.455292,685.419067 
	C511.282776,687.168518 512.418640,688.255798 513.154297,689.514954 
z"/>
<path fill="#AAAAAA" opacity="1.000000" stroke="none" 
	d="
M632.404907,697.949341 
	C632.528503,702.423645 631.363403,707.071228 637.799927,707.742004 
	C634.269470,710.508118 630.601990,708.838440 630.054504,704.534851 
	C629.657776,701.416077 630.142090,698.187622 629.775452,695.061768 
	C629.503479,692.742737 628.495972,690.510010 627.680542,687.785767 
	C628.409119,686.546753 629.718140,684.320801 631.574280,681.164429 
	C632.098206,683.489014 632.453918,685.067139 632.824646,686.712036 
	C634.160950,687.043213 635.520752,687.380249 636.880554,687.717285 
	C636.946106,688.051392 637.011597,688.385498 637.077087,688.719604 
	C635.638977,689.323853 634.200867,689.928101 632.405029,690.682678 
	C632.405029,692.857910 632.405029,695.164856 632.404907,697.949341 
z"/>
<path fill="#A6A6A6" opacity="1.000000" stroke="none" 
	d="
M580.311951,699.957886 
	C580.311951,698.148438 580.522461,696.777100 580.266907,695.498901 
	C579.774658,693.036926 579.018738,690.627625 578.245300,687.719299 
	C578.757568,686.759705 580.002502,684.940552 580.739441,682.934814 
	C582.081360,679.282715 584.408691,677.986816 588.386414,678.701172 
	C586.141785,681.230042 584.189331,683.429810 581.749390,686.178894 
	C584.866394,687.066589 586.443542,687.515808 588.020691,687.964966 
	C588.010315,688.353394 587.999939,688.741821 587.989502,689.130249 
	C586.501465,689.463867 585.013367,689.797424 582.999756,690.248840 
	C582.999756,696.461914 582.999756,702.854797 582.999756,710.544250 
	C578.756104,707.047058 581.054077,703.366333 580.311951,699.957886 
z"/>
<path fill="#AEAEAE" opacity="1.000000" stroke="none" 
	d="
M348.315674,689.419678 
	C343.197388,689.587646 342.430481,692.943176 342.285034,696.659424 
	C342.129364,700.636475 342.141724,704.619934 342.035797,708.599426 
	C342.029388,708.839966 341.626862,709.070068 340.597290,710.178711 
	C339.039093,702.161377 340.095123,694.849365 339.880096,688.472595 
	C342.498444,687.888550 344.407013,687.299500 346.356537,687.087769 
	C347.565948,686.956482 348.837463,687.397339 350.081116,687.581299 
	C349.619843,688.208313 349.158508,688.835266 348.315674,689.419678 
z"/>
<path fill="#A6A6A6" opacity="1.000000" stroke="none" 
	d="
M565.209351,704.632629 
	C565.209412,698.726013 565.209412,693.272827 565.209412,687.935425 
	C569.056030,687.689819 572.469055,687.471863 575.882080,687.253967 
	C575.866089,687.690125 575.850098,688.126282 575.834106,688.562500 
	C573.610107,689.569946 570.479797,690.005798 569.392395,691.730042 
	C568.045288,693.865845 568.220764,697.059204 568.051453,699.814941 
	C567.857422,702.973206 568.006531,706.152527 568.006531,709.322632 
	C567.374207,709.392395 566.741821,709.462158 566.109497,709.531921 
	C565.809448,708.049988 565.509399,706.568054 565.209351,704.632629 
z"/>
<path fill="#AEAEAE" opacity="1.000000" stroke="none" 
	d="
M391.922760,700.915771 
	C391.922760,696.141418 391.922760,691.849121 391.922760,688.122742 
	C395.816437,687.763550 399.074615,687.462952 402.332794,687.162354 
	C402.391876,687.642517 402.450958,688.122681 402.510040,688.602844 
	C402.013184,688.886047 401.496124,689.444763 401.022583,689.410034 
	C396.019440,689.043213 394.666260,692.127441 394.533936,696.260193 
	C394.422150,699.751221 394.556427,703.250122 394.443298,706.741089 
	C394.413177,707.670776 393.874298,708.583984 393.569000,709.504700 
	C393.020264,709.464478 392.471497,709.424255 391.922760,709.384033 
	C391.922760,706.722046 391.922760,704.059998 391.922760,700.915771 
z"/>
<path fill="#AEAEAE" opacity="1.000000" stroke="none" 
	d="
M641.827148,709.258301 
	C641.429443,701.907654 641.429443,694.628418 641.429443,687.287598 
	C642.119751,687.393494 642.707458,687.446472 642.706665,687.488770 
	C642.573608,694.769653 642.398376,702.049622 641.827148,709.258301 
z"/>
<path fill="#040303" opacity="1.000000" stroke="none" 
	d="
M476.462769,452.024811 
	C484.095306,449.331482 489.484009,451.333832 491.077576,458.574768 
	C492.154755,463.469421 491.580444,469.028229 490.470856,474.005981 
	C489.619385,477.825928 486.011353,480.045319 481.678223,480.045776 
	C477.612610,480.046204 474.812592,478.032715 472.863556,474.591095 
	C468.913940,467.616913 470.322052,457.822693 476.462769,452.024811 
z"/>
<path fill="#040303" opacity="1.000000" stroke="none" 
	d="
M595.092346,460.214600 
	C595.216614,463.573639 595.739441,466.612061 595.243774,469.474091 
	C593.918091,477.129791 590.316589,479.926758 582.612427,479.972443 
	C580.951294,479.982300 579.289978,479.973877 577.255371,479.973877 
	C577.255371,470.364563 577.255371,460.837524 577.254272,451.308380 
	C588.640686,449.812561 591.822083,451.335297 595.092346,460.214600 
z"/>
<path fill="#0A0909" opacity="1.000000" stroke="none" 
	d="
M630.997803,469.797607 
	C628.578979,469.797607 626.605408,469.797607 624.067322,469.797607 
	C626.086670,464.451630 627.979126,459.441620 630.266541,453.385895 
	C632.564270,459.227356 634.471191,464.075439 636.606506,469.503967 
	C634.519592,469.622650 632.981323,469.710114 630.997803,469.797607 
z"/>
<path fill="#0A0909" opacity="1.000000" stroke="none" 
	d="
M368.201172,460.218658 
	C369.014740,458.162872 369.698792,456.480591 370.875519,453.586578 
	C373.176727,459.327942 375.121277,464.179535 377.246216,469.481110 
	C372.931091,469.481110 369.115845,469.481110 364.819031,469.481110 
	C365.948242,466.395111 367.009918,463.493622 368.201172,460.218658 
z"/>
<path fill="#0A0909" opacity="1.000000" stroke="none" 
	d="
M375.146210,691.825439 
	C377.164398,690.788879 379.443909,689.200562 380.816376,689.775940 
	C382.294556,690.395569 383.418884,692.943237 383.796753,694.830200 
	C384.273193,697.209167 384.363739,699.945251 383.617798,702.194702 
	C383.084625,703.802429 380.777405,706.019653 379.484985,705.881226 
	C377.786041,705.699219 375.280945,703.682434 374.950043,702.077820 
	C374.301300,698.931824 374.916199,695.525146 375.146210,691.825439 
z"/>
<path fill="#0A0909" opacity="1.000000" stroke="none" 
	d="
M549.514404,691.085144 
	C555.414124,687.876648 557.925903,689.704956 557.730652,696.814148 
	C554.848022,696.814148 551.956665,696.814148 548.564148,696.814148 
	C548.812073,694.857056 549.030762,693.130676 549.514404,691.085144 
z"/>
<path fill="#0A0909" opacity="1.000000" stroke="none" 
	d="
M413.779083,697.068237 
	C411.551361,697.069214 409.778015,697.069214 407.957184,697.069214 
	C407.407074,693.325867 407.390076,689.851990 411.537231,689.559753 
	C413.206787,689.442078 415.579254,691.667480 416.679718,693.423157 
	C417.630035,694.939453 417.480743,697.474976 413.779083,697.068237 
z"/>
<path fill="#0A0909" opacity="1.000000" stroke="none" 
	d="
M325.845703,682.555969 
	C332.031281,683.152161 333.436218,684.679443 333.093170,689.921814 
	C332.774414,694.793030 330.821136,695.974304 323.065399,695.566406 
	C323.065399,691.857544 322.957825,688.097534 323.169281,684.355591 
	C323.205322,683.717834 324.607727,683.157349 325.845703,682.555969 
z"/>
<path fill="#0A0909" opacity="1.000000" stroke="none" 
	d="
M597.937988,697.083618 
	C595.221985,697.199097 592.567932,697.153564 593.791931,693.962036 
	C594.508789,692.092834 596.753235,689.526733 598.327881,689.514404 
	C602.713257,689.480225 603.215820,692.959900 602.753357,696.878662 
	C601.294006,696.947388 599.847168,697.015564 597.937988,697.083618 
z"/>
<path fill="#0A0909" opacity="1.000000" stroke="none" 
	d="
M539.978638,684.995483 
	C542.170898,693.435486 540.051575,695.994446 531.229248,695.621216 
	C531.229248,691.485718 531.229248,687.314819 531.229248,681.801697 
	C534.315125,682.812744 537.059387,683.711914 539.978638,684.995483 
z"/>
<path fill="#0A0909" opacity="1.000000" stroke="none" 
	d="
M655.133179,707.197388 
	C653.496399,705.601807 651.600098,704.203857 651.216248,702.470947 
	C650.620911,699.783936 650.465210,696.688171 651.251282,694.109619 
	C651.830688,692.209045 654.194275,689.629944 655.793274,689.608337 
	C657.371826,689.587158 659.798889,692.145386 660.390869,694.031311 
	C661.196594,696.597839 660.765137,699.609863 660.585205,702.413025 
	C660.392212,705.417664 658.964539,707.444092 655.133179,707.197388 
z"/>
<path fill="#0A0909" opacity="1.000000" stroke="none" 
	d="
M364.059143,691.370117 
	C364.464844,695.498840 365.151367,699.337646 364.655579,703.017273 
	C364.442871,704.595947 361.796204,706.905212 360.212830,706.939819 
	C358.662415,706.973816 356.258698,704.815308 355.669281,703.118896 
	C354.840027,700.732239 355.166687,697.874878 355.305237,695.234863 
	C355.613861,689.353699 358.690704,687.885315 364.059143,691.370117 
z"/>
<path fill="#0A0909" opacity="1.000000" stroke="none" 
	d="
M498.306396,692.150269 
	C498.593933,695.833008 499.263916,699.252197 498.612152,702.397644 
	C498.231171,704.236267 495.981567,706.544861 494.144012,707.034912 
	C490.934113,707.891052 489.406799,705.353394 489.211090,702.331360 
	C489.050476,699.851807 488.768341,697.271912 489.273254,694.892029 
	C489.670471,693.019592 490.878174,690.330750 492.285248,689.919800 
	C493.915405,689.443726 496.157349,691.062439 498.306396,692.150269 
z"/>
</svg>